<?xml version="1.0" standalone="no"?>
<!DOCTYPE svg PUBLIC "-//W3C//DTD SVG 20010904//EN"
 "http://www.w3.org/TR/2001/REC-SVG-20010904/DTD/svg10.dtd">
<svg version="1.0" xmlns="http://www.w3.org/2000/svg"
 width="564.000000pt" height="564.000000pt" viewBox="0 0 564.000000 564.000000"
 preserveAspectRatio="xMidYMid meet">
<metadata>
Created by potrace 1.11, written by Peter Selinger 2001-2013
</metadata>
<g transform="translate(0.000000,564.000000) scale(0.100000,-0.100000)"
fill="#000000" stroke="none">
<path d="M2286 4890 c-22 -4 -45 -15 -51 -24 -7 -9 -15 -16 -19 -16 -4 0 -33
-12 -64 -27 -39 -18 -85 -54 -144 -114 -49 -48 -88 -93 -88 -100 0 -6 -11 -20
-24 -30 -14 -11 -31 -33 -40 -49 -14 -28 -13 -29 5 -20 10 6 19 14 19 18 0 4
12 20 25 35 22 25 27 26 47 16 17 -9 19 -14 9 -17 -10 -3 -4 -13 20 -33 l34
-28 -35 -36 c-19 -20 -45 -38 -58 -42 -18 -4 -21 -8 -10 -15 10 -7 10 -10 -3
-18 -29 -17 -109 -103 -109 -117 0 -7 -4 -13 -10 -13 -5 0 -10 -7 -10 -16 0
-25 -57 -71 -183 -146 -64 -39 -115 -73 -113 -76 3 -2 17 3 30 12 14 9 30 16
36 16 7 0 39 16 71 35 33 19 64 35 70 35 14 0 11 -26 -6 -40 -8 -6 -14 -15
-13 -18 4 -14 -15 -77 -24 -83 -8 -5 -15 -26 -17 -53 -1 -6 -7 -2 -13 7 -11
15 -13 13 -14 -15 -1 -18 1 -27 3 -20 3 6 9 12 13 12 11 0 -7 -56 -28 -87 -8
-13 -11 -23 -8 -23 4 0 2 -9 -4 -20 -6 -11 -15 -18 -21 -15 -5 4 -9 1 -9 -4 0
-6 -9 -11 -19 -11 -11 0 -23 -4 -26 -10 -3 -5 -3 -10 2 -10 4 0 9 -11 9 -25 2
-29 -3 -31 -28 -8 -10 9 -21 13 -25 10 -8 -9 27 -48 41 -46 27 3 31 -4 32 -58
1 -32 3 -67 5 -78 3 -12 -2 -21 -13 -23 -13 -2 -18 3 -18 17 0 12 -3 21 -7 21
-16 -1 -41 -27 -45 -45 -2 -17 3 -20 35 -20 21 0 41 -5 45 -11 4 -6 14 -13 22
-16 11 -4 7 -9 -12 -18 -16 -7 -28 -17 -28 -22 0 -4 -7 -8 -15 -8 -8 0 -15 -9
-15 -19 0 -11 -4 -23 -10 -26 -5 -3 -10 -1 -10 6 0 8 -4 8 -15 -1 -8 -7 -15
-9 -15 -4 0 5 -16 -8 -34 -30 -34 -38 -34 -38 -46 -16 -7 12 -9 36 -6 55 10
50 -20 105 -40 74 -3 -6 -15 -9 -25 -6 -14 4 -19 0 -19 -15 0 -40 -32 -13 -50
42 -11 33 -18 46 -19 32 -1 -14 -5 -21 -12 -16 -6 3 -8 17 -5 29 3 13 1 27 -4
30 -6 4 -8 10 -5 15 3 4 -4 10 -15 13 -28 7 -25 27 5 27 13 0 28 7 33 16 6 11
11 13 16 5 4 -6 2 -11 -3 -11 -23 0 -9 -15 15 -16 19 -2 24 2 20 13 -4 9 -1
22 5 29 14 17 -2 19 -19 2 -9 -9 -13 -7 -18 5 -3 9 -10 15 -14 12 -4 -3 -13 2
-20 10 -18 21 -33 19 -21 -3 19 -35 -38 -59 -68 -29 -10 10 -11 7 -6 -15 6
-22 4 -28 -9 -28 -8 0 -20 9 -27 21 -8 16 -14 18 -22 9 -9 -8 -8 -14 5 -21 20
-11 24 -30 7 -27 -6 2 -13 -8 -15 -21 -3 -13 -12 -30 -22 -37 -16 -12 -16 -13
0 -19 14 -6 17 -17 15 -54 -2 -25 -6 -52 -11 -59 -4 -7 -4 -22 -1 -33 5 -14 3
-19 -4 -15 -6 4 -24 -8 -41 -27 -32 -37 -93 -71 -113 -63 -9 3 -9 5 1 5 6 1
12 8 12 16 0 16 -16 20 -24 6 -3 -5 -15 -11 -26 -14 -17 -4 -20 -1 -18 16 3
19 -1 22 -32 19 -57 -4 -60 -7 -60 -63 0 -37 3 -50 13 -46 9 3 12 -8 10 -44
-1 -27 3 -49 8 -49 23 0 6 -29 -23 -41 l-33 -13 33 -3 c29 -4 32 -7 32 -38 0
-19 -4 -37 -10 -40 -5 -3 -10 -16 -11 -28 0 -12 -3 -16 -6 -9 -7 18 -20 15
-26 -8 -8 -32 -35 -25 -29 6 3 19 1 25 -7 20 -7 -5 -11 0 -11 13 0 12 -4 21
-9 21 -5 0 -9 -17 -9 -37 0 -25 -6 -41 -21 -52 -20 -15 -39 -87 -35 -131 1 -8
2 -21 3 -27 0 -7 6 -13 11 -13 6 0 10 6 8 14 -2 8 0 15 5 15 4 1 7 -1 7 -4 0
-3 0 -16 0 -30 0 -19 -5 -25 -16 -23 -12 2 -20 -9 -29 -37 -10 -32 -14 -36
-20 -22 -4 9 -5 30 -3 47 2 16 0 26 -4 24 -10 -6 -2 -252 8 -278 3 -9 2 -16
-4 -16 -5 0 -12 12 -16 27 -12 55 -28 363 -31 578 -2 200 0 231 22 335 13 63
22 124 19 135 -6 23 16 94 31 104 6 3 21 31 33 61 50 123 85 198 116 245 69
104 106 155 114 155 5 0 20 24 34 53 22 45 26 65 25 147 0 52 2 134 5 182 4
61 2 89 -6 95 -11 6 -99 12 -481 29 -97 5 -142 3 -150 -5 -6 -6 -29 -10 -51
-10 -32 1 -35 3 -16 8 17 4 7 7 -35 11 -33 3 -79 1 -103 -5 l-42 -10 0 -1671
c0 -1370 3 -1673 13 -1677 20 -8 147 5 147 14 0 5 -12 11 -27 15 -47 10 -53
13 -53 27 0 11 28 16 117 21 65 4 127 8 138 10 11 1 24 0 30 -3 5 -3 49 -6 97
-7 72 -1 96 -6 143 -28 53 -26 77 -54 35 -41 -15 5 -20 2 -20 -11 0 -14 7 -16
41 -10 22 4 43 7 47 7 30 5 92 -3 92 -11 0 -23 -116 -31 -213 -15 -35 6 -47
12 -45 24 2 12 -6 16 -37 17 -22 0 -52 -6 -66 -12 -20 -10 -29 -10 -39 -1 -9
9 -11 9 -6 0 9 -16 -63 -22 -371 -32 l-23 -1 0 -570 0 -570 2820 0 2820 0 0
479 0 479 -34 6 c-39 8 -55 32 -25 41 10 4 19 11 19 16 0 5 9 9 20 9 41 0 18
19 -27 23 l-48 3 48 2 48 2 -3 285 c-2 202 -6 288 -15 293 -16 10 -28 98 -14
106 16 10 14 19 -10 45 -15 16 -28 21 -45 17 -21 -6 -24 -3 -24 24 0 28 -3 30
-32 29 -31 -2 -31 -2 -5 -6 15 -2 27 -8 27 -13 0 -4 -18 -6 -40 -3 -26 4 -40
2 -40 -6 0 -6 15 -12 33 -12 l32 -2 -35 -6 c-49 -9 -100 28 -100 73 -1 29 -1
30 -15 12 -8 -11 -15 -38 -16 -60 0 -30 -2 -36 -8 -21 -7 16 -9 14 -14 -15 -3
-19 -9 -80 -13 -135 -4 -69 -14 -118 -30 -160 l-24 -60 7 45 c13 81 4 190 -19
253 -8 21 -6 53 7 131 14 80 15 114 8 152 l-11 49 -1 -72 c0 -39 -4 -78 -7
-87 -8 -20 -24 -11 -24 15 0 11 -7 19 -17 20 -10 0 -13 3 -6 5 7 3 10 11 7 18
-3 7 -6 28 -8 47 -1 19 -8 53 -15 77 -10 35 -16 42 -36 42 -18 0 -23 4 -19 15
4 8 1 15 -5 15 -6 0 -11 5 -11 11 0 5 4 8 9 5 5 -3 14 0 20 8 6 7 23 13 37 12
22 -1 30 -8 41 -41 21 -64 23 -68 28 -64 2 3 -2 30 -9 62 -11 47 -11 60 0 74
13 19 11 22 48 -67 5 -13 3 11 -6 75 -2 12 2 19 10 18 6 -2 12 4 12 13 0 8 -4
12 -10 9 -6 -4 -10 6 -10 22 0 16 -7 38 -15 49 -8 10 -15 29 -15 41 0 12 -5
23 -10 25 -14 4 -80 195 -80 230 0 14 6 29 13 32 6 3 2 3 -11 0 -25 -6 -39 15
-26 44 12 28 9 66 -6 57 -5 -3 -10 -2 -10 4 0 5 -3 16 -6 24 -4 13 0 14 28 7
47 -11 68 -21 68 -31 0 -5 5 -9 11 -9 6 0 26 -12 44 -26 l34 -26 6 25 c7 26
-9 126 -25 162 -5 11 -11 29 -13 40 -3 11 -5 2 -6 -20 0 -35 4 -63 24 -152 4
-17 1 -21 -9 -17 -8 3 -17 23 -21 45 -4 21 -11 39 -16 39 -4 0 -6 -7 -3 -15 9
-22 -1 -18 -38 14 -41 35 -74 46 -93 31 -8 -6 -18 -9 -23 -7 -4 3 -8 -10 -8
-29 0 -21 -7 -39 -19 -47 -10 -8 -15 -19 -11 -25 7 -12 -10 -52 -22 -52 -11 0
-32 61 -25 73 3 5 0 7 -8 5 -8 -3 -23 3 -34 13 -11 9 -27 19 -35 21 -8 2 -20
8 -26 14 -12 11 -54 97 -54 110 0 5 -15 24 -32 43 -22 22 -27 32 -15 28 11 -4
16 -3 12 4 -4 5 -15 7 -26 4 -14 -5 -22 0 -30 19 -7 14 -15 23 -19 21 -4 -3
-13 1 -19 9 -9 11 -9 17 1 27 7 8 12 21 12 29 -1 8 -2 25 -3 38 -1 28 -15 28
-28 0 -9 -20 -10 -20 -33 18 -24 39 -32 50 -70 92 -23 25 -25 33 -7 27 9 -4
12 10 12 50 0 36 -4 55 -12 55 -6 0 -14 10 -16 23 -3 12 -4 6 -4 -13 1 -20 -4
-41 -13 -48 -13 -12 -13 -13 0 -9 10 3 16 -2 16 -14 0 -17 -2 -17 -18 -2 -15
13 -16 19 -5 31 10 13 9 15 -5 9 -10 -3 -18 -2 -18 3 0 5 -10 18 -21 29 -13
12 -19 26 -15 36 3 9 2 13 -4 10 -5 -3 -14 13 -20 36 -6 23 -22 52 -36 66 -13
13 -24 29 -24 36 0 7 -14 27 -30 46 -17 18 -30 43 -30 53 0 31 -33 71 -165
200 l-123 119 -1 84 c0 57 -7 108 -21 153 -12 37 -31 97 -43 134 -11 37 -19
69 -16 72 13 13 223 -49 299 -89 17 -9 30 -12 30 -7 0 17 -38 43 -76 53 -22 6
-46 17 -54 24 -8 6 -40 25 -70 41 -30 15 -64 36 -75 45 -11 9 -37 22 -58 29
-37 12 -39 14 -35 50 2 21 0 36 -4 34 -5 -3 -8 0 -8 7 0 6 -12 23 -26 36 l-27
24 6 -53 c4 -29 8 -64 11 -78 39 -214 40 -286 4 -322 -10 -10 -18 -23 -18 -28
0 -12 -35 8 -93 54 -32 24 -41 27 -48 15 -10 -17 -12 -53 -2 -62 4 -4 14 -29
23 -55 13 -36 22 -48 41 -50 45 -7 116 -61 124 -96 6 -26 8 -28 14 -12 7 18 8
18 14 2 4 -10 7 -46 7 -82 0 -63 0 -64 -34 -78 -38 -16 -54 -35 -38 -45 6 -4
13 -22 17 -41 3 -19 8 -47 11 -62 5 -24 2 -28 -18 -28 -13 0 -34 7 -47 16 -17
12 -26 13 -34 5 -20 -20 -31 -12 -12 9 18 20 18 21 -7 48 -14 15 -39 48 -56
73 -27 40 -34 45 -60 41 -27 -3 -33 2 -80 74 -29 42 -52 85 -52 95 0 10 -13
27 -29 38 -24 17 -30 18 -35 6 -3 -8 3 -19 12 -25 16 -9 15 -11 -3 -22 -11 -7
-37 -14 -59 -15 l-38 -1 33 36 c19 20 42 44 52 53 10 9 17 31 17 51 0 51 -28
151 -48 168 -9 8 -23 33 -31 54 -7 22 -27 58 -42 79 -16 22 -29 44 -29 50 0
20 -53 112 -84 147 l-33 36 -1 -77 c-1 -61 -7 -90 -27 -136 -35 -76 -59 -100
-107 -108 -39 -7 -40 -8 -33 -39 13 -55 14 -266 1 -266 -18 0 -95 91 -101 121
-3 14 -15 35 -25 47 -10 11 -16 23 -12 27 4 4 -9 5 -28 1 -32 -6 -33 -5 -15 8
11 9 25 16 31 16 11 0 20 20 30 61 2 10 -7 24 -21 33 -14 9 -25 25 -25 34 0
10 -13 31 -30 47 -35 34 -48 27 -81 -43 -12 -26 -31 -60 -42 -76 -11 -15 -21
-38 -21 -50 -1 -11 -8 -20 -15 -18 -7 1 -25 -11 -41 -28 -16 -17 -35 -30 -42
-29 -7 1 -21 -1 -31 -5 -26 -12 -42 -2 -67 46 -42 78 -54 182 -27 234 8 16 17
43 20 59 7 43 28 85 60 120 35 37 51 75 38 88 -5 5 -7 16 -4 23 10 28 -8 12
-111 -93 -171 -176 -246 -264 -246 -289 0 -12 -7 -24 -15 -28 -8 -3 -15 -15
-15 -27 0 -11 -9 -32 -20 -46 -11 -14 -25 -43 -30 -63 -6 -21 -26 -60 -45 -87
-66 -90 -110 -158 -123 -188 -10 -24 -15 -27 -22 -15 -26 41 15 230 54 252 9
5 25 27 37 50 11 22 28 42 37 45 9 2 24 20 33 39 14 30 15 37 2 61 -20 37 -12
95 27 208 17 50 32 101 34 115 2 25 23 70 31 70 2 0 -1 -14 -7 -31 -6 -16 -8
-32 -5 -35 3 -3 28 20 57 50 29 31 76 67 104 80 l51 25 -50 -1 c-27 0 -68 -4
-89 -8z m-31 -572 c4 -18 9 -41 11 -50 3 -10 1 -18 -4 -18 -5 0 -12 12 -15 28
-3 15 -8 37 -12 50 -4 13 -3 22 3 22 6 0 13 -15 17 -32z m-2060 -107 c3 -5 1
-12 -5 -16 -5 -3 -10 1 -10 9 0 18 6 21 15 7z m3813 -196 c17 -9 50 -39 74
-68 48 -58 101 -110 136 -134 27 -18 61 -82 55 -100 -3 -7 0 -13 6 -13 6 0 11
-7 11 -15 0 -8 8 -15 19 -15 12 0 28 -18 46 -53 32 -60 29 -93 -7 -84 -30 8
-63 -10 -48 -28 15 -18 1 -25 -44 -23 -35 1 -36 2 -36 40 0 28 -4 38 -16 38
-8 0 -12 5 -9 10 3 6 2 10 -3 10 -5 0 -13 10 -17 23 l-8 22 -4 -22 c-4 -19 -8
-21 -29 -13 -36 14 -54 12 -54 -5 0 -8 5 -15 10 -15 6 0 10 -20 10 -44 0 -40
-3 -45 -35 -60 -36 -17 -43 -30 -24 -41 6 -4 8 -13 5 -21 -3 -9 1 -14 12 -15
9 0 1 -7 -18 -14 l-35 -13 30 -2 c17 -1 24 -4 17 -7 -7 -3 -30 -2 -50 2 l-37
7 30 14 c27 12 28 13 4 8 l-26 -5 -1 73 c-2 79 -14 155 -32 202 -6 16 -8 38
-4 49 3 11 2 17 -3 14 -11 -7 -35 61 -27 75 3 4 2 8 -3 8 -4 0 -9 11 -9 25 -1
16 3 25 13 25 7 0 25 12 38 26 21 23 25 37 25 90 0 35 2 64 3 64 2 0 18 -7 35
-15z m-1121 -9 c51 -8 172 -46 178 -56 3 -6 14 -10 24 -10 29 0 194 -85 220
-114 14 -14 30 -26 36 -26 7 0 20 -9 31 -21 16 -17 16 -22 4 -31 -13 -8 -12
-9 2 -5 9 3 22 -1 29 -9 10 -12 9 -13 -7 -8 -15 5 -16 4 -8 -5 6 -7 18 -13 25
-14 21 -4 39 -17 39 -29 0 -5 -7 -8 -15 -4 -18 7 -20 -5 -3 -22 9 -9 8 -12 -5
-12 -10 0 -20 7 -23 15 -4 8 -10 15 -16 15 -5 0 0 -13 11 -29 22 -30 28 -61
12 -61 -6 0 -12 4 -15 9 -3 5 -15 7 -25 4 -20 -5 -20 -5 0 -26 10 -11 19 -31
19 -44 0 -13 8 -26 18 -30 9 -4 27 -13 40 -21 20 -13 21 -17 8 -24 -9 -5 -16
-15 -16 -22 0 -8 -7 -16 -15 -20 -24 -9 -18 -28 6 -21 14 5 20 3 17 -5 -2 -6
-6 -10 -9 -8 -11 6 -38 -30 -46 -63 -6 -24 -19 -39 -41 -50 -22 -11 -28 -19
-20 -23 7 -3 -3 -4 -22 -1 -29 4 -31 3 -12 -5 23 -10 29 -25 12 -35 -6 -3 -6
-15 0 -30 5 -13 12 -46 15 -74 5 -46 3 -52 -19 -66 -14 -9 -29 -14 -35 -11 -5
4 -16 -1 -24 -9 -9 -8 -20 -15 -25 -15 -5 0 -15 -7 -22 -15 -10 -12 -15 -12
-35 1 -14 9 -21 22 -18 30 3 8 -3 17 -13 21 -11 4 -25 13 -32 20 -11 11 -11
13 2 13 9 0 16 5 16 10 0 6 7 10 15 10 9 0 26 11 38 24 13 14 35 28 49 31 48
12 41 32 -27 82 -36 27 -65 51 -65 56 0 12 29 8 60 -8 47 -24 80 -35 80 -26 0
4 -11 14 -25 21 -13 7 -22 17 -19 21 6 11 -37 39 -61 39 -12 0 -26 5 -32 11
-8 8 -84 12 -235 13 -123 1 -229 5 -236 10 -7 4 -12 18 -12 32 0 13 -5 24 -12
24 -6 0 -8 -3 -5 -6 3 -4 2 -15 -3 -24 -6 -12 -6 -29 1 -49 10 -29 23 -36 67
-34 7 1 11 -2 8 -5 -3 -3 13 -16 36 -30 31 -17 58 -24 96 -24 28 0 52 -4 52
-8 0 -15 -18 -21 -23 -8 -4 9 -6 10 -6 1 -1 -6 3 -14 8 -17 5 -3 7 -24 4 -46
-3 -22 -2 -40 3 -40 5 0 15 -9 22 -21 12 -19 11 -19 -7 -9 -17 9 -20 8 -15 -5
4 -8 1 -15 -5 -15 -6 0 -11 7 -11 15 0 9 -6 18 -14 21 -7 3 -28 25 -46 49
l-33 44 -30 -21 -29 -21 7 31 c6 31 6 31 -22 21 -36 -13 -71 -58 -53 -69 14
-9 5 -30 -13 -30 -17 0 -39 -37 -27 -45 6 -3 15 -3 20 0 6 3 10 -3 10 -15 0
-12 5 -30 10 -41 8 -15 7 -21 -5 -25 -8 -3 -13 -10 -10 -14 3 -5 -8 -5 -24 0
-16 4 -32 6 -34 4 -2 -3 -25 6 -50 20 -46 24 -46 24 -24 39 27 18 17 33 -12
16 -27 -18 -34 -8 -17 25 8 15 17 23 20 18 3 -5 14 -12 25 -15 23 -6 18 18 -5
27 -8 3 -14 15 -14 26 0 28 -18 60 -33 60 -7 0 -6 -4 3 -10 12 -8 9 -10 -14
-10 -28 0 -28 0 -11 -26 22 -34 9 -46 -15 -14 -15 20 -21 23 -31 13 -16 -16
-59 -17 -59 -2 0 6 9 8 20 4 12 -4 28 -1 36 6 12 10 8 15 -27 30 -22 11 -45
17 -49 14 -5 -3 -11 -1 -14 4 -7 11 17 21 49 21 43 0 113 37 129 69 18 33 21
77 7 86 -5 3 -12 18 -16 33 -3 15 -15 38 -26 52 -17 20 -20 21 -14 5 21 -59
22 -73 10 -102 -12 -28 -18 -31 -72 -36 -32 -3 -69 -5 -83 -4 -14 0 -69 -3
-122 -6 l-98 -6 -6 24 c-6 24 -4 34 15 65 21 36 34 70 28 76 -4 4 1 12 9 19
13 9 17 31 18 98 1 47 5 89 9 93 9 9 -46 34 -74 34 -11 0 -19 -4 -19 -10 0 -5
-7 -10 -15 -10 -24 0 -12 25 14 30 13 3 26 11 29 19 3 10 0 11 -9 5 -8 -4 -2
8 12 26 26 34 56 56 114 83 56 26 150 69 181 83 16 7 73 23 125 35 51 12 110
25 129 30 33 8 187 4 257 -5z m448 -15 c-3 -6 -14 -11 -23 -11 -15 1 -15 2 2
15 21 16 32 13 21 -4z m-228 -17 c-3 -3 -12 -4 -19 -1 -8 3 -5 6 6 6 11 1 17
-2 13 -5z m63 -24 c13 -8 13 -10 -2 -10 -9 0 -20 5 -23 10 -8 13 5 13 25 0z
m50 -20 c0 -5 -4 -10 -10 -10 -5 0 -10 5 -10 10 0 6 5 10 10 10 6 0 10 -4 10
-10z m-1190 -20 c0 -5 -9 -6 -20 -3 -11 3 -20 9 -20 13 0 5 9 6 20 3 11 -3 20
-9 20 -13z m95 1 c3 -5 1 -12 -5 -16 -5 -3 -10 1 -10 9 0 18 6 21 15 7z m-544
-259 c7 -18 5 -22 -12 -22 -11 0 -18 4 -14 9 3 5 1 12 -5 16 -13 8 -2 27 12
23 6 -2 15 -14 19 -26z m29 -64 c0 -20 -4 -27 -12 -22 -10 6 -10 4 0 -7 17
-18 15 -34 -3 -19 -16 14 -21 55 -5 45 6 -3 10 -1 10 4 0 6 -4 11 -10 11 -5 0
-10 4 -10 8 0 5 7 9 15 9 10 0 15 -10 15 -29z m2797 -78 c3 -11 6 -23 6 -27 0
-4 9 -17 19 -28 11 -11 17 -27 15 -37 -3 -10 0 -15 7 -12 7 3 19 -8 26 -23 8
-15 16 -31 17 -34 6 -10 -31 -7 -45 4 -9 7 -9 13 -1 23 9 11 8 14 -4 14 -8 0
-18 -6 -20 -12 -4 -10 -8 -10 -15 1 -7 10 -4 20 9 34 10 11 17 23 14 26 -3 2
-12 -4 -21 -15 -14 -17 -15 -18 -10 -1 3 10 3 30 0 43 -5 18 -11 23 -25 19
-31 -10 -41 5 -17 25 29 25 39 25 45 0z m-137 -50 c0 -5 -7 -10 -15 -10 -8 0
-15 5 -15 10 0 6 7 10 15 10 8 0 15 -4 15 -10z m50 0 c0 -5 -7 -10 -15 -10 -8
0 -15 5 -15 10 0 6 7 10 15 10 8 0 15 -4 15 -10z m-2647 -50 c3 -11 0 -20 -6
-21 -7 -1 -25 -2 -42 -4 -16 -1 -36 2 -43 8 -21 16 6 37 48 37 29 0 39 -4 43
-20z m2647 -30 c0 -5 -4 -10 -10 -10 -5 0 -10 5 -10 10 0 6 5 10 10 10 6 0 10
-4 10 -10z m-225 -10 c-19 -7 -18 -8 5 -13 14 -3 43 -10 65 -16 37 -9 36 -9
-15 -4 -56 6 -84 18 -74 34 3 5 13 9 22 8 14 0 13 -2 -3 -9z m93 -7 c-10 -2
-26 -2 -35 0 -10 3 -2 5 17 5 19 0 27 -2 18 -5z m-2648 -13 c0 -5 -5 -10 -11
-10 -5 0 -7 5 -4 10 3 6 8 10 11 10 2 0 4 -4 4 -10z m2890 -10 c0 -5 -6 -10
-12 -11 -10 0 -10 -2 0 -6 16 -6 15 -23 -2 -23 -8 0 -13 8 -11 18 2 9 4 20 4
25 1 11 21 8 21 -3z m-3147 -13 c4 -10 -2 -13 -19 -9 -13 2 -21 8 -18 13 8 14
31 11 37 -4z m245 -17 c-12 -19 -28 -27 -28 -14 0 6 30 33 38 34 1 0 -3 -9
-10 -20z m2512 -1 c23 -7 23 -7 -8 -8 -22 -1 -31 -5 -26 -13 4 -7 3 -8 -5 -4
-6 4 -9 12 -6 17 4 5 -8 9 -25 9 -18 0 -29 4 -25 10 6 9 43 5 95 -11z m217 15
c-3 -3 -12 -4 -19 -1 -8 3 -5 6 6 6 11 1 17 -2 13 -5z m-2787 -23 c0 -19 -17
-38 -25 -29 -7 7 7 48 16 48 5 0 9 -9 9 -19z m2915 9 c-3 -5 -12 -10 -18 -10
-7 0 -6 4 3 10 19 12 23 12 15 0z m145 0 c0 -5 -10 -10 -22 -9 -22 0 -22 1 -3
9 11 5 21 9 23 9 1 1 2 -3 2 -9z m-1690 -30 c-39 -22 -54 -25 -45 -10 4 6 -5
10 -19 10 -14 0 -26 5 -26 10 0 6 27 10 63 10 l62 -1 -35 -19z m1140 10 c0 -5
-5 -10 -11 -10 -5 0 -7 5 -4 10 3 6 8 10 11 10 2 0 4 -4 4 -10z m155 0 c4 -6
-7 -10 -24 -10 -17 0 -31 5 -31 10 0 6 11 10 24 10 14 0 28 -4 31 -10z m-1725
-20 c0 -5 -10 -10 -22 -9 -22 0 -22 1 -3 9 11 5 21 9 23 9 1 1 2 -3 2 -9z
m699 -19 c41 -39 43 -92 5 -128 -22 -20 -35 -24 -77 -22 -43 3 -56 8 -79 35
-42 48 -35 99 20 128 45 25 96 20 131 -13z m1128 23 c-3 -3 -12 -4 -19 -1 -8
3 -5 6 6 6 11 1 17 -2 13 -5z m193 -20 c0 -8 -5 -12 -10 -9 -6 4 -8 11 -5 16
9 14 15 11 15 -7z m30 1 c0 -8 -2 -15 -4 -15 -2 0 -6 7 -10 15 -3 8 -1 15 4
15 6 0 10 -7 10 -15z m34 -6 c-15 -6 -16 -8 -2 -8 9 -1 23 6 32 14 8 8 18 15
22 15 5 0 3 -5 -3 -11 -8 -8 -7 -23 4 -55 12 -36 19 -44 39 -44 13 0 24 -5 24
-11 0 -6 -6 -9 -14 -6 -7 3 -19 0 -25 -6 -8 -8 -11 -7 -11 6 0 9 -7 17 -15 17
-8 0 -21 13 -29 29 -9 16 -22 31 -31 34 -8 4 -15 15 -15 26 0 15 5 18 22 13
21 -5 21 -6 2 -13z m-2245 -15 c43 -35 44 -92 4 -115 -45 -26 -80 -30 -116
-15 -28 11 -35 21 -40 51 -8 47 5 73 46 90 47 21 72 18 106 -11z m2322 -11 c6
-16 6 -30 1 -35 -6 -6 -11 4 -14 26 -5 43 -1 46 13 9z m-1776 -63 c3 -5 -3
-10 -15 -10 -12 0 -18 5 -15 10 3 6 10 10 15 10 5 0 12 -4 15 -10z m1380 0 c3
-5 1 -10 -4 -10 -6 0 -11 5 -11 10 0 6 2 10 4 10 3 0 8 -4 11 -10z m525 -30
c0 -19 -18 -19 -23 -1 -3 14 -1 18 9 14 8 -3 14 -9 14 -13z m-2367 -36 c-7
-20 -10 -18 -15 11 -4 20 -2 23 8 14 7 -6 10 -17 7 -25z m1693 -12 c-3 -5 3
-18 13 -28 20 -22 35 -68 18 -57 -7 4 -8 0 -3 -13 5 -10 13 -32 18 -49 6 -16
14 -35 19 -40 4 -6 4 -17 -1 -25 -6 -10 -10 -7 -15 16 -4 16 -13 44 -22 62 -8
18 -11 42 -8 54 5 14 4 18 -4 14 -6 -4 -11 -1 -11 6 0 7 -7 25 -14 41 -13 24
-13 27 0 27 8 0 13 -4 10 -8z m-979 -38 c-3 -3 -12 -4 -19 -1 -8 3 -5 6 6 6
11 1 17 -2 13 -5z m1668 -21 c10 -16 12 -22 5 -16 -11 10 -17 10 -29 1 -13
-10 -14 -10 -3 2 15 18 16 34 0 24 -7 -4 -8 -3 -4 4 10 16 11 16 31 -15z
m-1695 -37 c0 -15 -19 -44 -21 -31 0 6 -2 20 -3 32 -2 14 2 19 11 16 7 -3 13
-10 13 -17z m-720 -7 c0 -12 -52 -79 -61 -79 -4 0 -9 9 -12 20 -4 15 0 20 14
20 10 0 19 6 19 13 0 14 20 37 32 37 4 0 8 -5 8 -11z m-900 -9 c0 -5 -5 -10
-11 -10 -5 0 -7 5 -4 10 3 6 8 10 11 10 2 0 4 -4 4 -10z m797 -56 c3 -8 1 -20
-6 -27 -8 -8 -11 -8 -11 1 0 7 -7 12 -15 12 -9 0 -12 6 -9 15 8 20 33 19 41
-1z m379 -14 c24 0 44 -4 44 -9 0 -5 -26 -8 -57 -7 -32 0 -71 -3 -86 -7 -26
-7 -27 -6 -17 14 10 17 18 20 42 15 17 -3 50 -6 74 -6z m8 -56 c24 -9 20 -21
-12 -37 -24 -11 -32 -12 -46 -1 -17 12 -14 40 3 30 4 -3 13 -1 21 5 18 11 15
10 34 3z m-1417 -17 c-11 -7 -33 -24 -50 -39 -17 -15 -34 -25 -36 -22 -6 5 52
60 71 67 24 10 33 6 15 -6z m3702 -67 c0 -10 -3 -8 -9 5 -12 27 -12 43 0 25 5
-8 9 -22 9 -30z m-4262 -2 c-3 -8 -6 -5 -6 6 -1 11 2 17 5 13 3 -3 4 -12 1
-19z m4478 -198 c21 -36 56 -99 78 -140 22 -41 46 -82 53 -91 8 -8 14 -28 14
-44 0 -23 -2 -25 -14 -15 -18 14 -91 8 -92 -8 -1 -7 -2 -15 -3 -20 0 -4 -10
-13 -22 -20 -19 -12 -20 -11 -14 7 4 13 0 23 -11 29 -10 6 -15 16 -11 26 4 10
-3 25 -18 40 -14 14 -25 29 -25 33 -1 4 -12 17 -26 28 -14 11 -31 26 -37 33
-7 7 -19 22 -28 32 -13 14 -14 21 -5 30 8 8 7 14 -6 21 -20 11 -24 44 -8 54
17 10 2 24 -20 18 -18 -5 -19 -1 -15 61 5 63 34 134 48 119 4 -3 7 -1 7 6 0
18 111 -124 155 -199z m-4030 180 c-10 -11 -20 -18 -23 -16 -5 6 21 35 32 36
5 0 1 -9 -9 -20z m-270 -58 c-27 -178 -43 -243 -63 -272 -36 -51 -81 -136 -97
-187 -10 -29 -22 -53 -27 -53 -5 0 -6 -5 -3 -10 3 -6 1 -26 -6 -45 -14 -37
-65 -70 -93 -59 -20 8 -20 28 -1 153 20 133 66 238 158 355 86 111 92 117 109
113 7 -2 10 -2 7 0 -3 2 -4 15 -1 28 7 39 24 17 17 -23z m235 28 c0 -5 -5 -10
-11 -10 -5 0 -7 5 -4 10 3 6 8 10 11 10 2 0 4 -4 4 -10z m-393 -22 c-3 -8 -6
-5 -6 6 -1 11 2 17 5 13 3 -3 4 -12 1 -19z m1128 -19 c-5 -50 -15 -64 -15 -21
0 29 8 62 16 62 2 0 1 -18 -1 -41z m80 -45 c14 -15 25 -31 25 -35 0 -4 16 -25
35 -46 19 -21 35 -42 35 -48 0 -5 7 -1 15 9 22 30 27 14 9 -29 -12 -29 -18
-35 -25 -24 -5 8 -9 9 -9 3 0 -8 -49 -90 -68 -114 -2 -3 -12 6 -23 19 -16 19
-18 33 -13 80 4 40 1 72 -11 109 -15 46 -15 102 1 102 3 0 16 -12 29 -26z
m2700 16 c-3 -5 -16 -10 -28 -10 -18 0 -19 2 -7 10 20 13 43 13 35 0z m20 -20
c-3 -5 -2 -10 4 -10 12 0 23 -51 23 -104 0 -28 2 -35 7 -22 5 14 12 -5 20 -59
7 -44 17 -90 22 -102 5 -13 7 -23 5 -23 -3 0 -12 -3 -22 -7 -13 -5 -16 -3 -11
10 3 9 2 17 -4 17 -7 0 -9 20 -4 61 4 35 3 59 -2 56 -4 -3 -17 16 -27 41 -11
26 -27 56 -36 67 -27 31 -34 73 -13 78 32 8 44 7 38 -3z m-2580 -170 c3 -5 1
-10 -4 -10 -6 0 -11 5 -11 10 0 6 2 10 4 10 3 0 8 -4 11 -10z m29 -45 c42 -18
45 -33 12 -68 -13 -14 -26 -36 -29 -49 -4 -14 -18 -30 -32 -36 -29 -13 -69
-16 -63 -4 2 4 10 20 18 36 13 26 12 29 -5 43 -14 10 -15 14 -5 13 32 -5 40 1
40 25 0 16 6 25 16 25 10 0 14 6 10 15 -7 18 -7 18 38 0z m1231 -55 c-4 -17
-9 -29 -12 -26 -3 2 -2 19 2 36 4 17 9 29 12 26 3 -2 2 -19 -2 -36z m149 -11
c10 -17 15 -33 12 -37 -10 -10 -59 45 -52 57 11 18 20 13 40 -20z m-1233 -26
c14 -13 32 -23 40 -23 19 -1 -28 -40 -48 -40 -10 0 -13 -10 -11 -37 3 -38 3
-38 -37 -40 -32 -2 -47 3 -75 27 -32 28 -32 30 -12 30 13 0 21 4 17 9 -3 5 1
16 9 23 7 8 17 30 21 49 4 19 9 37 12 41 6 10 54 -12 84 -39z m3109 7 c0 -5
-2 -10 -4 -10 -3 0 -8 5 -11 10 -3 6 -1 10 4 10 6 0 11 -4 11 -10z m-598 -64
c14 -20 8 -26 -11 -14 -17 10 -24 9 -42 -7 -21 -19 -20 -8 2 21 11 14 42 14
51 0z m-1475 -33 c-3 -10 -5 -4 -5 12 0 17 2 24 5 18 2 -7 2 -21 0 -30z m2021
25 c-3 -7 -21 -16 -41 -19 -36 -6 -37 -5 -21 13 19 20 68 25 62 6z m-2883 -38
c11 0 28 -12 38 -25 14 -20 15 -24 2 -19 -8 4 -15 1 -15 -6 0 -7 -9 -25 -21
-41 -15 -21 -19 -38 -14 -57 5 -21 4 -24 -6 -15 -11 11 -29 77 -46 167 -6 29
-5 29 18 13 13 -10 33 -17 44 -17z m790 -30 c-18 -18 -23 -30 -15 -35 8 -5 5
-17 -10 -41 -11 -20 -20 -42 -20 -51 0 -9 -11 -31 -25 -49 -30 -39 -32 -61 -6
-69 18 -5 19 -15 15 -143 -3 -75 -9 -149 -15 -165 -14 -33 -6 -81 20 -113 11
-14 17 -33 14 -45 -3 -11 -8 -17 -11 -14 -3 3 -17 -5 -30 -17 l-25 -23 7 40
c4 22 6 65 5 95 -3 68 -3 106 0 190 4 86 -7 151 -29 175 -10 11 -20 29 -23 40
-3 11 -8 30 -12 43 -4 13 -2 22 5 22 6 0 28 11 49 24 33 21 39 31 43 70 6 46
40 101 68 108 26 6 23 -12 -5 -42z m1617 -17 l20 -22 -21 6 c-13 3 -21 1 -21
-6 0 -7 5 -9 13 -5 8 5 8 2 -2 -9 -7 -9 -15 -17 -17 -17 -2 0 -3 26 -3 58 1
31 3 48 6 37 3 -11 14 -30 25 -42z m-1562 0 c-11 -17 -11 -17 -6 0 3 10 6 24
7 30 0 9 2 9 5 0 3 -7 0 -20 -6 -30z m1500 -40 c0 -9 -1 -14 -3 -12 -1 2 -11
15 -22 28 l-20 24 23 -12 c12 -6 22 -19 22 -28z m-2156 -18 c11 -16 12 -26 5
-30 -6 -4 -11 -5 -12 -4 -1 2 -10 19 -20 36 -15 27 -15 32 -3 27 8 -3 22 -16
30 -29z m643 13 c-3 -8 -6 -5 -6 6 -1 11 2 17 5 13 3 -3 4 -12 1 -19z m-2432
-18 c-4 -12 -2 -26 3 -33 6 -7 13 -32 16 -57 5 -45 55 -256 95 -404 11 -44 21
-89 21 -100 -1 -21 -1 -21 -16 -1 -8 11 -13 30 -11 42 2 12 0 20 -4 17 -5 -3
-11 8 -15 23 -4 15 -16 36 -28 46 -20 16 -20 17 -1 10 16 -5 18 -4 9 8 -12 16
-36 117 -39 169 -2 19 -8 64 -15 100 -7 36 -13 80 -15 98 -1 18 -5 35 -9 39
-10 11 -7 63 5 63 6 0 8 -9 4 -20z m1722 -38 c12 -31 27 -95 32 -141 7 -50 17
-91 27 -102 10 -11 15 -31 12 -55 -4 -45 16 -57 27 -17 l8 28 6 -30 c4 -16 3
-31 -1 -33 -13 -6 -9 -17 12 -40 18 -19 21 -37 23 -147 1 -69 -1 -125 -5 -125
-13 0 -9 -38 5 -44 10 -5 10 -7 0 -12 -7 -3 -13 -19 -13 -36 0 -37 -20 -111
-33 -119 -5 -4 -5 -9 1 -13 15 -9 4 -36 -14 -36 -8 0 -14 4 -14 9 0 5 -13 14
-30 21 -29 12 -44 38 -16 27 10 -4 13 2 12 18 -1 18 -4 21 -14 12 -40 -33 -83
0 -78 59 2 27 -1 30 -22 28 -19 -2 -21 0 -11 12 6 8 8 21 4 31 -5 10 -7 22 -6
27 1 4 -4 15 -10 22 -10 12 -8 18 7 29 23 18 63 30 71 21 3 -3 -8 -11 -25 -17
-22 -8 -31 -16 -29 -30 4 -26 13 -33 20 -14 4 8 2 15 -4 15 -6 0 -7 5 -3 11 3
6 9 7 13 2 3 -5 17 -14 31 -21 l25 -12 -27 5 c-19 4 -28 1 -28 -7 0 -13 30
-15 133 -10 35 2 38 4 32 25 -5 18 -4 19 5 7 12 -15 10 14 -5 80 -5 22 -4 23
5 5 9 -16 9 -14 5 14 -3 18 -5 43 -6 55 0 11 -3 15 -6 9 -6 -17 -23 -16 -23 1
0 8 -7 16 -15 20 -11 4 -15 21 -15 64 0 47 -4 63 -21 78 -13 12 -18 26 -15 40
6 21 -37 92 -64 109 -6 4 -15 17 -21 28 -5 12 -14 29 -21 39 -9 13 -9 25 2 57
7 23 18 41 24 41 7 0 6 3 -1 8 -7 4 -10 17 -6 30 3 12 9 19 14 16 5 -3 9 0 9
5 0 27 17 6 37 -47z m689 10 c-18 -16 -18 -16 -6 6 6 13 14 21 18 18 3 -4 -2
-14 -12 -24z m-535 -94 c-8 -18 -10 -12 -9 32 0 50 1 52 9 23 6 -19 5 -40 0
-55z m-2016 62 c-3 -5 -10 -10 -16 -10 -5 0 -9 5 -9 10 0 6 7 10 16 10 8 0 12
-4 9 -10z m-38 -35 c36 -22 41 -43 38 -175 -1 -48 2 -74 6 -60 4 15 7 -14 8
-71 1 -108 13 -145 68 -222 19 -27 33 -51 30 -53 -5 -6 -79 85 -94 116 -34 70
-99 281 -132 433 -8 34 -6 40 13 47 24 10 21 11 63 -15z m3840 -17 c9 -18 28
-58 40 -88 19 -46 21 -59 11 -78 -6 -12 -17 -21 -22 -19 -6 3 -17 -1 -23 -8
-15 -17 -1 -23 73 -31 29 -4 59 -13 65 -20 16 -20 -4 -48 -50 -69 -40 -17 -42
-17 -61 0 -19 17 -20 17 -20 1 0 -10 -5 -14 -11 -10 -7 4 -21 7 -33 8 -22 1
-24 11 -11 59 6 21 4 27 -9 27 -18 0 -22 45 -6 70 8 12 10 9 10 -12 0 -16 5
-28 10 -28 6 0 10 18 10 40 0 22 -4 40 -10 40 -6 0 -10 32 -10 75 0 85 16 100
47 43z m-1479 -83 c6 -22 14 -104 18 -183 6 -128 5 -142 -9 -136 -12 4 -16 -1
-15 -25 1 -19 6 -31 15 -31 22 0 15 -28 -9 -36 -13 -4 -41 -8 -63 -8 -47 -1
-45 -12 -51 197 -3 89 -2 137 5 133 5 -3 12 7 16 23 3 16 13 35 21 42 8 6 14
18 14 27 0 20 31 55 40 45 4 -5 12 -26 18 -48z m-1829 -47 c1 -16 -3 -28 -8
-28 -12 0 -17 36 -12 75 5 30 5 30 12 5 4 -14 7 -37 8 -52z m4278 -15 c-3 -10
-5 -4 -5 12 0 17 2 24 5 18 2 -7 2 -21 0 -30z m-2738 -30 c0 -31 -2 -34 -9
-18 -12 28 -12 55 0 55 6 0 10 -17 9 -37z m2175 26 c-4 -7 -8 -24 -9 -38 -3
-48 -5 -52 -15 -46 -5 3 -10 -3 -10 -14 0 -10 5 -21 11 -23 7 -2 4 -12 -8 -26
-25 -32 -51 -20 -58 26 -4 21 -8 47 -11 60 -3 15 1 24 13 28 10 3 34 14 53 25
41 22 43 22 34 8z m359 -28 c9 -9 9 -14 -3 -21 -10 -7 -11 -10 -2 -10 6 0 12
-8 12 -17 0 -15 2 -16 10 -3 8 12 10 9 10 -13 0 -16 4 -26 9 -23 15 10 32 -66
22 -99 -5 -16 -10 -22 -10 -12 -1 13 -10 17 -43 18 -24 0 -52 2 -63 5 -11 2
-31 4 -45 6 -19 1 -25 8 -27 26 -1 17 2 21 7 12 4 -7 15 -10 23 -7 11 4 13 17
9 55 -4 44 -1 52 23 74 29 27 47 30 68 9z m211 -27 c3 -8 2 -12 -4 -9 -6 3
-10 10 -10 16 0 14 7 11 14 -7z m106 -4 c0 -17 -19 -20 -47 -9 l-28 12 25 7
c27 7 50 3 50 -10z m49 -24 c-2 -1 -17 -8 -34 -16 -16 -8 -33 -16 -36 -18 -4
-1 -9 4 -12 11 -3 8 0 14 6 14 39 -1 47 4 47 30 l0 27 16 -22 c9 -13 14 -24
13 -26z m-176 -21 c4 -27 3 -35 -3 -25 -5 8 -10 28 -10 44 0 39 6 30 13 -19z
m-2726 -7 c-3 -8 -6 -5 -6 6 -1 11 2 17 5 13 3 -3 4 -12 1 -19z m1943 -24 c0
-8 -4 -12 -10 -9 -5 3 -10 10 -10 16 0 5 5 9 10 9 6 0 10 -7 10 -16z m-1929
-16 c1 -17 2 -19 6 -6 3 14 9 16 23 8 19 -10 20 -28 21 -245 0 -16 0 -52 1
-80 1 -27 1 -67 0 -87 0 -21 4 -38 9 -38 5 0 9 -12 9 -27 0 -16 4 -35 10 -43
5 -9 7 15 3 65 -7 96 2 95 18 -1 15 -99 16 -109 2 -106 -7 1 -13 -5 -13 -13 0
-25 -37 -17 -59 13 -20 27 -20 27 -21 4 0 -13 -4 -20 -10 -17 -13 8 -13 46 1
82 8 22 12 24 19 13 7 -10 9 5 8 45 -1 34 -3 46 -5 28 -2 -18 -8 -33 -12 -33
-5 0 -7 14 -5 30 2 17 -1 30 -6 30 -6 0 -10 5 -10 11 0 6 9 9 20 6 18 -5 20 0
22 51 4 134 -9 293 -22 272 -5 -8 -7 -17 -4 -21 2 -4 0 -10 -6 -14 -5 -3 -10
2 -11 12 0 10 -2 33 -5 51 -2 17 1 32 6 32 6 0 11 -10 11 -22z m-1310 -72 c12
-13 12 -26 -1 -26 -5 0 -10 7 -10 16 0 8 -4 12 -10 9 -6 -4 -10 11 -9 37 l1
43 10 -35 c5 -19 14 -39 19 -44z m3272 47 c-5 -13 -2 -15 12 -9 11 4 16 3 11
-1 -4 -4 -18 -8 -30 -8 -26 -1 -31 30 -4 32 12 1 15 -3 11 -14z m151 -29 c9
-24 2 -26 -12 -4 -7 11 -8 20 -3 20 5 0 12 -7 15 -16z m-3559 -24 c3 -5 1 -10
-4 -10 -6 0 -11 5 -11 10 0 6 2 10 4 10 3 0 8 -4 11 -10z m-400 -35 c0 -5 4
-16 9 -23 16 -25 -19 -40 -62 -27 -16 5 -21 13 -18 24 5 13 4 13 -8 -1 -16
-22 -30 -23 -22 -2 3 8 2 12 -4 9 -15 -9 -12 1 4 18 16 16 101 18 101 2z m412
-7 c-3 -8 -6 -5 -6 6 -1 11 2 17 5 13 3 -3 4 -12 1 -19z m1530 0 c-3 -8 -6 -5
-6 6 -1 11 2 17 5 13 3 -3 4 -12 1 -19z m2023 13 c0 -5 -7 -14 -15 -21 -16
-14 -18 -10 -9 14 6 17 24 22 24 7z m203 -8 c-8 -25 -24 -43 -35 -43 -5 0 0
14 12 30 24 34 32 38 23 13z m-3616 -25 c-3 -8 -6 -5 -6 6 -1 11 2 17 5 13 3
-3 4 -12 1 -19z m2963 8 c0 -3 -4 -8 -10 -11 -5 -3 -10 -1 -10 4 0 6 5 11 10
11 6 0 10 -2 10 -4z m11 -32 c-5 -16 -10 -21 -10 -12 -1 18 10 51 15 45 2 -1
-1 -16 -5 -33z m359 32 c0 -3 -4 -8 -10 -11 -5 -3 -10 -1 -10 4 0 6 5 11 10
11 6 0 10 -2 10 -4z m-3986 -56 c-6 -5 -24 21 -24 34 0 6 6 1 14 -10 8 -10 12
-21 10 -24z m593 8 c-3 -7 -5 -2 -5 12 0 14 2 19 5 13 2 -7 2 -19 0 -25z
m1200 0 c-3 -8 -6 -5 -6 6 -1 11 2 17 5 13 3 -3 4 -12 1 -19z m319 -3 c0 -14
-5 -25 -11 -25 -5 0 -3 -5 5 -10 8 -6 38 -9 65 -8 50 2 50 2 53 -31 2 -23 7
-31 18 -27 8 3 14 -1 14 -9 0 -8 -5 -15 -10 -15 -6 0 -5 -8 2 -21 11 -17 10
-22 -5 -33 -16 -13 -16 -14 -1 -20 14 -5 15 -9 5 -19 -9 -9 -16 -9 -31 1 -26
16 -26 8 0 -18 11 -11 20 -31 20 -45 0 -18 5 -25 20 -25 11 0 20 -4 20 -10 0
-5 -1 -10 -2 -10 -76 -9 -148 -10 -148 -2 0 6 10 13 23 15 18 4 18 4 -6 6 -20
1 -27 6 -25 18 2 11 -6 19 -22 24 -14 4 -19 7 -12 8 6 1 12 8 12 16 0 12 9 15
35 13 19 -1 37 1 41 5 4 4 -8 7 -27 7 -36 1 -75 23 -65 38 3 5 0 23 -7 41 -11
29 -9 34 14 54 13 12 23 21 20 20 -8 -5 -31 19 -31 33 0 11 25 46 36 53 1 1 1
-10 0 -24z m1479 -15 c-9 -41 -17 -33 -9 9 4 17 9 30 11 27 3 -2 2 -19 -2 -36z
m-3168 -22 c-2 -13 -4 -5 -4 17 -1 22 1 32 4 23 2 -10 2 -28 0 -40z m-894 25
c-38 -3 -53 -8 -53 -19 0 -7 -4 -14 -10 -14 -5 0 -10 9 -10 20 0 18 6 20 63
18 l62 -2 -52 -3z m5004 -15 c-3 -8 -6 -5 -6 6 -1 11 2 17 5 13 3 -3 4 -12 1
-19z m-4507 8 c0 -3 -4 -8 -10 -11 -5 -3 -10 -1 -10 4 0 6 5 11 10 11 6 0 10
-2 10 -4z m105 -20 c13 -21 -9 -37 -44 -34 -17 2 -27 11 -32 30 -7 26 -6 27
29 24 20 -2 41 -11 47 -20z m1812 -8 c-3 -7 -5 -2 -5 12 0 14 2 19 5 13 2 -7
2 -19 0 -25z m-2387 9 c0 -12 -31 -21 -39 -10 -3 6 -13 12 -21 15 -8 3 2 5 22
4 21 0 38 -5 38 -9z m85 3 c-3 -5 -10 -10 -16 -10 -5 0 -9 5 -9 10 0 6 7 10
16 10 8 0 12 -4 9 -10z m40 0 c3 -5 1 -10 -4 -10 -6 0 -11 5 -11 10 0 6 2 10
4 10 3 0 8 -4 11 -10z m2571 -27 c-11 -11 -19 6 -11 24 8 17 8 17 12 0 3 -10
2 -21 -1 -24z m1711 0 c-3 -10 -5 -4 -5 12 0 17 2 24 5 18 2 -7 2 -21 0 -30z
m-3380 5 c-3 -8 -6 -5 -6 6 -1 11 2 17 5 13 3 -3 4 -12 1 -19z m3506 -3 c4 -8
2 -17 -3 -20 -6 -4 -10 -22 -10 -41 0 -50 -23 -39 -31 14 -4 31 -2 42 8 42 7
0 13 5 13 10 0 15 17 12 23 -5z m-3656 -48 c1 -12 5 -34 8 -49 5 -30 -9 -39
-19 -12 -8 22 -8 99 1 90 4 -3 8 -17 10 -29z m156 16 c-3 -7 -9 -10 -14 -7
-14 8 -11 21 5 21 8 0 12 -6 9 -14z m1207 -3 c0 -5 -4 -10 -10 -10 -5 0 -10 5
-10 10 0 6 5 10 10 10 6 0 10 -4 10 -10z m2190 -22 c0 -36 -4 -35 -14 5 -4 16
-2 27 4 27 5 0 10 -14 10 -32z m-2037 7 c-3 -9 -8 -14 -10 -11 -3 3 -2 9 2 15
9 16 15 13 8 -4z m-2103 -5 c0 -6 -9 -10 -19 -10 -11 0 -26 -3 -35 -6 -10 -4
-16 -1 -16 8 0 10 12 15 35 16 19 1 35 -3 35 -8z m290 6 c0 -3 -4 -8 -10 -11
-5 -3 -10 -1 -10 4 0 6 5 11 10 11 6 0 10 -2 10 -4z m-375 -15 c7 -12 -12 -24
-25 -16 -11 7 -4 25 10 25 5 0 11 -4 15 -9z m1915 -41 c0 -5 -2 -10 -4 -10 -3
0 -8 5 -11 10 -3 6 -1 10 4 10 6 0 11 -4 11 -10z m688 -11 c-2 -6 -7 -10 -11
-10 -4 1 -19 2 -34 2 l-28 1 30 8 c44 11 47 11 43 -1z m1643 -52 c-13 -13 -15
21 -3 50 6 15 8 13 10 -11 2 -16 -1 -33 -7 -39z m73 22 c11 -57 8 -67 -14 -39
-21 27 -23 70 -4 70 6 0 14 -14 18 -31z m-4534 5 c0 -2 -9 -4 -21 -4 -11 0
-18 4 -14 10 5 8 35 3 35 -6z m2960 -54 c0 -40 -4 -70 -10 -70 -5 0 -10 4 -10
9 0 5 -9 11 -19 14 -16 4 -21 -1 -24 -27 -3 -17 -3 1 -1 40 4 89 10 104 40
104 23 0 24 -3 24 -70z m-2810 50 c0 -5 -4 -10 -10 -10 -5 0 -10 5 -10 10 0 6
5 10 10 10 6 0 10 -4 10 -10z m65 -20 c3 -6 -5 -10 -19 -10 -19 0 -26 5 -26
20 0 17 3 19 19 10 11 -5 23 -15 26 -20z m2855 -2 c0 7 3 11 8 8 4 -2 6 -25 4
-51 -5 -58 -25 -46 -28 17 -2 28 1 37 7 27 7 -11 9 -11 9 -1z m-1987 -23 c1
-5 -6 -11 -15 -13 -11 -2 -18 3 -18 13 0 17 30 18 33 0z m1674 -27 c-3 -7 -5
-2 -5 12 0 14 2 19 5 13 2 -7 2 -19 0 -25z m-387 -73 c0 -8 -4 -15 -9 -15 -13
0 -22 16 -14 24 11 11 23 6 23 -9z m377 -67 c-3 -8 -6 -5 -6 6 -1 11 2 17 5
13 3 -3 4 -12 1 -19z m-2923 6 c9 -3 16 -15 16 -26 0 -17 -4 -19 -27 -13 -36
9 -38 12 -23 30 14 17 13 17 34 9z m2863 0 c-3 -3 -12 -4 -19 -1 -8 3 -5 6 6
6 11 1 17 -2 13 -5z m-1394 -11 c-7 -2 -19 -2 -25 0 -7 3 -2 5 12 5 14 0 19
-2 13 -5z m847 -45 c0 -5 -4 -8 -10 -8 -5 0 -10 10 -10 23 0 18 2 19 10 7 5
-8 10 -18 10 -22z m414 3 c10 -11 16 -25 14 -32 -4 -13 -48 27 -48 43 0 14 16
9 34 -11z m-2399 -1 c3 -5 1 -10 -4 -10 -6 0 -11 5 -11 10 0 6 2 10 4 10 3 0
8 -4 11 -10z m2765 -33 c0 -4 -10 -2 -22 4 -13 7 -24 12 -25 11 -9 -6 -23 0
-19 7 7 11 66 -9 66 -22z m-2825 2 c10 -15 -1 -23 -20 -15 -9 3 -13 10 -10 16
8 13 22 13 30 -1z m46 -12 c-1 -12 -15 -9 -19 4 -3 6 1 10 8 8 6 -3 11 -8 11
-12z m859 3 c0 -15 -26 -23 -41 -14 -9 5 -7 10 7 15 27 11 34 10 34 -1z m1585
-20 c17 -11 26 -20 22 -20 -11 0 -67 29 -67 35 0 10 16 4 45 -15z m-2295 -14
c0 -3 -4 -8 -10 -11 -5 -3 -10 -1 -10 4 0 6 5 11 10 11 6 0 10 -2 10 -4z
m2100 -6 c0 -5 -12 -10 -27 -9 -25 0 -26 1 -8 9 27 12 35 12 35 0z m-2577 -20
c-3 -11 -9 -20 -14 -20 -11 0 -11 3 -3 24 9 23 23 20 17 -4z m48 7 c-1 -4 -1
-14 -1 -22 0 -8 -4 -15 -10 -15 -5 0 -10 12 -10 26 0 14 5 24 11 22 6 -2 10
-7 10 -11z m4222 -4 c-7 -2 -21 -2 -30 0 -10 3 -4 5 12 5 17 0 24 -2 18 -5z
m207 -3 c0 -5 -2 -10 -4 -10 -3 0 -8 5 -11 10 -3 6 -1 10 4 10 6 0 11 -4 11
-10z m-1587 -14 c1 -5 -6 -14 -16 -20 -14 -8 -20 -8 -27 4 -6 9 -5 17 3 22 15
10 37 6 40 -6z m1772 4 c3 -5 1 -10 -4 -10 -6 0 -11 5 -11 10 0 6 2 10 4 10 3
0 8 -4 11 -10z m-645 -80 c0 -5 -21 -10 -46 -10 -27 0 -43 4 -39 10 3 6 24 10
46 10 21 0 39 -4 39 -10z m-3170 -76 c0 -17 -22 -14 -28 4 -2 7 3 12 12 12 9
0 16 -7 16 -16z m2142 -106 c-8 -8 -17 -8 -34 0 -22 10 -21 11 12 11 26 1 31
-2 22 -11z m1980 -69 c10 -6 10 -11 1 -20 -14 -14 -117 7 -107 22 6 11 88 9
106 -2z m-1092 -70 c0 -16 -4 -19 -22 -13 -29 8 -31 10 -23 23 12 20 45 13 45
-10z m1160 -45 c0 -2 -12 -4 -27 -4 -21 0 -24 3 -14 9 13 8 41 5 41 -5z
m-4754 -9 c18 -13 16 -14 -26 -14 -42 0 -44 1 -26 14 11 8 23 15 26 15 3 0 15
-7 26 -15z m316 -87 c-6 -6 -16 -7 -22 -3 -9 6 -9 9 1 16 17 10 34 0 21 -13z
m38 12 c0 -5 -5 -10 -11 -10 -5 0 -7 5 -4 10 3 6 8 10 11 10 2 0 4 -4 4 -10z
m1063 -154 c28 -21 20 -26 -38 -24 -35 1 -55 7 -55 14 0 23 66 30 93 10z m94
-12 c-3 -3 -12 -4 -19 -1 -8 3 -5 6 6 6 11 1 17 -2 13 -5z"/>
<path d="M3947 3693 c-3 -5 -1 -17 4 -28 7 -17 8 -17 8 8 1 27 -4 34 -12 20z"/>
<path d="M4050 3630 c0 -5 4 -10 9 -10 6 0 13 5 16 10 3 6 -1 10 -9 10 -9 0
-16 -4 -16 -10z"/>
<path d="M4098 3633 c6 -2 18 -2 25 0 6 3 1 5 -13 5 -14 0 -19 -2 -12 -5z"/>
<path d="M3982 3579 c-19 -30 -8 -34 12 -4 9 14 13 25 9 25 -5 0 -14 -9 -21
-21z"/>
<path d="M3983 3475 c-3 -9 -3 -18 -1 -21 3 -3 8 4 11 16 6 23 -1 27 -10 5z"/>
<path d="M2416 3507 c3 -10 9 -15 12 -12 3 3 0 11 -7 18 -10 9 -11 8 -5 -6z"/>
<path d="M2643 3445 c-8 -22 6 -33 17 -15 13 20 12 30 0 30 -6 0 -13 -7 -17
-15z"/>
<path d="M2510 3385 c0 -8 5 -15 10 -15 6 0 10 7 10 15 0 8 -4 15 -10 15 -5 0
-10 -7 -10 -15z"/>
<path d="M4465 3360 c-3 -5 -1 -10 4 -10 6 0 11 5 11 10 0 6 -2 10 -4 10 -3 0
-8 -4 -11 -10z"/>
<path d="M4916 2713 c-4 -9 -3 -20 1 -24 4 -4 9 3 9 17 2 28 -1 31 -10 7z"/>
<path d="M751 2643 c-16 -17 -11 -25 8 -14 7 5 12 13 10 19 -2 6 -10 4 -18 -5z"/>
<path d="M746 2598 c-11 -36 -13 -58 -6 -58 4 0 10 16 12 35 4 35 1 46 -6 23z"/>
<path d="M731 2484 c0 -11 3 -14 6 -6 3 7 2 16 -1 19 -3 4 -6 -2 -5 -13z"/>
<path d="M4562 2560 c0 -14 2 -19 5 -12 2 6 2 18 0 25 -3 6 -5 1 -5 -13z"/>
<path d="M3045 1490 c3 -5 8 -10 11 -10 2 0 4 5 4 10 0 6 -5 10 -11 10 -5 0
-7 -4 -4 -10z"/>
<path d="M2380 1959 c0 -11 4 -18 10 -14 5 3 7 12 3 20 -7 21 -13 19 -13 -6z"/>
<path d="M2478 1313 c7 -3 16 -2 19 1 4 3 -2 6 -13 5 -11 0 -14 -3 -6 -6z"/>
<path d="M2526 1221 c-4 -5 -2 -12 3 -15 5 -4 12 -2 15 3 4 5 2 12 -3 15 -5 4
-12 2 -15 -3z"/>
<path d="M571 1844 c0 -11 3 -14 6 -6 3 7 2 16 -1 19 -3 4 -6 -2 -5 -13z"/>
<path d="M2837 1623 c-4 -3 -7 -17 -7 -29 0 -21 2 -23 25 -12 28 13 33 33 9
42 -19 7 -19 7 -27 -1z"/>
<path d="M5139 1737 c6 -8 7 -18 3 -22 -4 -5 -2 -5 5 -1 14 8 6 36 -9 36 -7 0
-6 -5 1 -13z"/>
<path d="M3832 4876 c7 -8 15 -12 17 -11 5 6 -10 25 -20 25 -5 0 -4 -6 3 -14z"/>
<path d="M3780 4855 c0 -24 31 -65 49 -65 5 0 12 -6 14 -12 4 -9 6 -9 6 1 1 8
-9 25 -21 38 -19 20 -20 25 -8 33 13 8 12 10 -2 10 -10 0 -18 5 -18 10 0 6 -4
10 -10 10 -5 0 -10 -11 -10 -25z"/>
<path d="M1984 4715 c-10 -8 -14 -15 -8 -15 6 0 17 7 24 15 16 19 9 19 -16 0z"/>
<path d="M396 4588 c3 -4 14 -8 25 -8 11 0 18 4 14 9 -3 6 -14 9 -25 8 -10 -1
-16 -5 -14 -9z"/>
<path d="M123 4573 c9 -2 23 -2 30 0 6 3 -1 5 -18 5 -16 0 -22 -2 -12 -5z"/>
<path d="M228 4563 c34 -2 88 -2 120 0 31 2 3 3 -63 3 -66 0 -92 -1 -57 -3z"/>
<path d="M701 4546 c8 -8 209 -13 209 -4 0 4 -48 8 -107 8 -58 0 -104 -2 -102
-4z"/>
<path d="M902 4440 c0 -19 2 -27 5 -17 2 9 2 25 0 35 -3 9 -5 1 -5 -18z"/>
<path d="M1765 4420 c-4 -6 6 -10 22 -10 22 0 25 2 13 10 -19 12 -27 12 -35 0z"/>
<path d="M1600 4019 c0 -5 5 -7 10 -4 6 3 10 8 10 11 0 2 -4 4 -10 4 -5 0 -10
-5 -10 -11z"/>
<path d="M1410 3990 c0 -5 7 -10 15 -10 8 0 15 5 15 10 0 6 -7 10 -15 10 -8 0
-15 -4 -15 -10z"/>
<path d="M1353 3944 c-3 -10 -11 -22 -16 -25 -5 -4 -7 -13 -5 -20 3 -9 11 -1
22 19 10 19 15 36 12 39 -3 3 -9 -3 -13 -13z"/>
<path d="M5090 3942 c0 -20 38 -74 44 -64 4 6 2 13 -4 17 -6 4 -8 10 -5 14 2
5 -4 16 -15 26 -11 10 -20 13 -20 7z"/>
<path d="M1330 3851 c0 -30 -10 -38 -63 -47 -69 -11 -112 -25 -195 -62 -50
-23 -97 -42 -104 -42 -6 0 -8 -3 -5 -6 4 -4 44 7 90 25 86 32 202 61 247 60
44 0 91 -54 67 -78 -8 -8 -8 -11 0 -11 6 0 13 6 16 13 3 10 9 10 26 0 23 -15
41 -17 41 -5 0 4 -23 30 -50 59 -37 39 -50 60 -50 82 0 16 -4 33 -10 36 -6 4
-10 -6 -10 -24z"/>
<path d="M5150 3796 c0 -14 5 -28 10 -31 6 -3 10 5 10 19 0 14 -4 28 -10 31
-6 3 -10 -5 -10 -19z"/>
<path d="M1390 3800 c0 -5 5 -10 10 -10 6 0 10 5 10 10 0 6 -4 10 -10 10 -5 0
-10 -4 -10 -10z"/>
<path d="M1305 3758 c-15 -40 -8 -95 12 -102 21 -9 31 8 25 42 -5 24 -6 25
-14 7 -5 -13 -7 -6 -3 23 3 26 1 42 -5 42 -6 0 -13 -6 -15 -12z"/>
<path d="M1235 3710 c3 -5 8 -10 11 -10 2 0 4 5 4 10 0 6 -5 10 -11 10 -5 0
-7 -4 -4 -10z"/>
<path d="M1300 3630 c0 -5 4 -10 9 -10 6 0 13 5 16 10 3 6 -1 10 -9 10 -9 0
-16 -4 -16 -10z"/>
<path d="M1470 3610 c0 -11 5 -20 10 -20 6 0 10 9 10 20 0 11 -4 20 -10 20 -5
0 -10 -9 -10 -20z"/>
<path d="M1290 3592 c0 -5 7 -13 16 -16 10 -4 14 -1 12 6 -5 15 -28 23 -28 10z"/>
<path d="M5156 3529 c-4 -34 -5 -63 -2 -66 7 -7 26 66 26 100 0 51 -17 27 -24
-34z"/>
<path d="M4675 3570 c-3 -5 -1 -10 4 -10 6 0 11 5 11 10 0 6 -2 10 -4 10 -3 0
-8 -4 -11 -10z"/>
<path d="M1226 3561 c-3 -4 4 -20 15 -37 10 -16 19 -38 19 -49 1 -20 1 -20 18
1 10 11 23 19 30 16 10 -3 13 4 10 24 -3 25 -7 29 -30 27 -16 -1 -28 2 -28 6
0 12 -28 22 -34 12z"/>
<path d="M1337 3540 c3 -11 7 -20 9 -20 2 0 4 9 4 20 0 11 -4 20 -9 20 -5 0
-7 -9 -4 -20z"/>
<path d="M882 3539 c2 -7 10 -15 17 -17 8 -3 12 1 9 9 -2 7 -10 15 -17 17 -8
3 -12 -1 -9 -9z"/>
<path d="M900 3497 c-21 -17 -19 -71 3 -75 12 -3 21 6 28 27 6 17 15 31 20 31
5 0 9 7 9 15 0 18 -39 20 -60 2z"/>
<path d="M814 3488 c-9 -14 23 -38 50 -38 18 0 18 1 -4 25 -26 28 -35 31 -46
13z"/>
<path d="M4631 3474 c0 -11 3 -14 6 -6 3 7 2 16 -1 19 -3 4 -6 -2 -5 -13z"/>
<path d="M970 3459 c0 -11 5 -17 10 -14 6 3 10 13 10 21 0 8 -4 14 -10 14 -5
0 -10 -9 -10 -21z"/>
<path d="M1395 3460 c3 -5 8 -10 11 -10 2 0 4 5 4 10 0 6 -5 10 -11 10 -5 0
-7 -4 -4 -10z"/>
<path d="M1440 3449 c0 -5 5 -7 10 -4 6 3 10 8 10 11 0 2 -4 4 -10 4 -5 0 -10
-5 -10 -11z"/>
<path d="M4652 3444 c-7 -8 -11 -22 -9 -32 4 -16 5 -16 6 1 1 10 9 17 22 17
11 0 19 5 17 12 -6 18 -21 19 -36 2z"/>
<path d="M4510 3436 c0 -8 5 -18 10 -21 6 -3 10 1 10 9 0 8 -4 18 -10 21 -5 3
-10 -1 -10 -9z"/>
<path d="M795 3410 c-3 -11 -11 -20 -16 -20 -5 0 -9 -11 -9 -24 0 -13 -5 -26
-12 -28 -6 -2 -8 -10 -4 -16 9 -14 46 -16 46 -2 0 5 -7 7 -15 4 -19 -8 -19 5
0 30 15 20 15 20 16 0 1 -16 2 -15 7 4 8 28 26 30 30 5 7 -32 18 -34 45 -9 32
29 34 40 8 33 -13 -3 -22 3 -30 19 -14 31 -57 33 -66 4z"/>
<path d="M4672 3389 c2 -6 8 -10 13 -10 5 0 11 4 13 10 2 6 -4 11 -13 11 -9 0
-15 -5 -13 -11z"/>
<path d="M4642 3340 c0 -19 2 -27 5 -17 2 9 2 25 0 35 -3 9 -5 1 -5 -18z"/>
<path d="M717 3353 c-15 -4 -17 -11 -12 -31 10 -42 22 -44 28 -6 1 10 6 25 10
32 8 12 5 13 -26 5z"/>
<path d="M940 3341 c0 -6 5 -13 10 -16 6 -3 10 1 10 9 0 9 -4 16 -10 16 -5 0
-10 -4 -10 -9z"/>
<path d="M4609 3335 c-1 -5 -1 -13 0 -17 0 -5 -3 -8 -8 -8 -5 0 -7 -9 -4 -20
3 -11 10 -20 15 -20 5 0 6 5 3 10 -4 6 -2 16 4 23 6 8 6 18 1 27 -6 8 -10 11
-11 5z"/>
<path d="M660 3250 c0 -5 5 -10 11 -10 5 0 7 5 4 10 -3 6 -8 10 -11 10 -2 0
-4 -4 -4 -10z"/>
<path d="M4645 3230 c-4 -6 7 -10 24 -10 17 0 31 5 31 10 0 6 -11 10 -24 10
-14 0 -28 -4 -31 -10z"/>
<path d="M4720 3200 c0 -5 7 -10 15 -10 8 0 15 5 15 10 0 6 -7 10 -15 10 -8 0
-15 -4 -15 -10z"/>
<path d="M640 3118 c0 -19 2 -20 10 -8 13 19 13 30 0 30 -5 0 -10 -10 -10 -22z"/>
<path d="M700 3125 c0 -8 4 -15 10 -15 5 0 7 7 4 15 -4 8 -8 15 -10 15 -2 0
-4 -7 -4 -15z"/>
<path d="M4796 3083 c-6 -14 -5 -15 5 -6 7 7 10 15 7 18 -3 3 -9 -2 -12 -12z"/>
<path d="M4755 3060 c-3 -5 -2 -10 4 -10 5 0 13 5 16 10 3 6 2 10 -4 10 -5 0
-13 -4 -16 -10z"/>
<path d="M5231 3058 c0 -7 4 -22 9 -33 8 -18 9 -17 9 7 1 15 -3 30 -9 33 -5 3
-10 0 -9 -7z"/>
<path d="M4843 3033 c-10 -3 -9 -11 2 -33 18 -34 19 -44 5 -35 -5 3 -10 1 -10
-4 0 -6 6 -11 14 -11 8 0 23 -15 35 -32 14 -23 21 -27 21 -15 0 9 -4 17 -10
17 -5 0 -10 13 -10 29 0 74 -14 98 -47 84z"/>
<path d="M4855 2920 c3 -5 8 -10 11 -10 2 0 4 5 4 10 0 6 -5 10 -11 10 -5 0
-7 -4 -4 -10z"/>
<path d="M5222 2890 c0 -19 2 -27 5 -17 2 9 2 25 0 35 -3 9 -5 1 -5 -18z"/>
<path d="M5196 2883 c-4 -9 -3 -20 2 -25 6 -6 10 1 10 16 0 30 -3 32 -12 9z"/>
<path d="M4936 2851 c-4 -6 2 -19 14 -31 20 -20 20 -20 17 0 -4 27 -23 45 -31
31z"/>
<path d="M4991 2814 c8 -9 14 -22 15 -28 0 -6 2 -20 3 -31 1 -16 3 -17 11 -5
6 9 5 17 -3 23 -9 7 -9 10 1 14 10 4 9 9 -4 24 -21 23 -42 26 -23 3z"/>
<path d="M5290 2120 c0 -5 5 -10 11 -10 5 0 7 5 4 10 -3 6 -8 10 -11 10 -2 0
-4 -4 -4 -10z"/>
<path d="M5211 2064 c0 -11 3 -14 6 -6 3 7 2 16 -1 19 -3 4 -6 -2 -5 -13z"/>
<path d="M5212 2020 c0 -14 2 -19 5 -12 2 6 2 18 0 25 -3 6 -5 1 -5 -13z"/>
<path d="M5260 1735 c5 -14 7 -33 4 -42 -5 -16 -4 -16 6 0 13 20 6 67 -10 67
-6 0 -6 -9 0 -25z"/>
<path d="M7 1153 c7 -2 19 -2 26 0 6 3 1 5 -13 5 -14 0 -19 -2 -13 -5z"/>
</g>
</svg>
